<?xml version="1.0" encoding="utf-8" ?><svg xmlns="http://www.w3.org/2000/svg" xmlns:xlink="http://www.w3.org/1999/xlink" width="1024" height="1024" viewBox="0 0 1024 1024"><path fill="white" d="M0 0L1024 0L1024 1024L0 1024L0 0Z"/><path d="M356.993 477.163C369.862 476.206 392.772 476.938 406.13 476.943L502.647 476.975L611.171 476.951C628.864 476.943 646.605 476.745 664.285 476.959C676.08 477.101 685.81 485.243 686.399 497.277C686.73 504.061 686.584 511.102 686.59 517.949L686.619 566.029L686.569 664.469L686.588 694.97C686.637 713.113 689.456 732.032 666.118 735.935C651.378 737.012 626.517 736.306 611.278 736.31L508.475 736.321L406.542 736.276C390.631 736.233 374.619 736.524 358.739 736.007C348.668 735.68 339.341 728.021 338.175 717.785C337.024 707.686 337.439 697.208 337.433 687.028L337.466 626.48L337.476 540.986C337.479 526.559 337.296 512.075 337.723 497.663C338.068 485.996 345.685 478.657 356.993 477.163Z"/><path fill="white" d="M357.167 545.662C370.259 546.133 384.06 545.895 397.226 545.887L461.625 545.853L666.864 545.759C665.902 585.274 667.14 625.724 666.647 665.248C666.556 672.526 667.363 711.246 665.653 715.86C663.497 716.937 631.504 716.551 626.105 716.55L551.601 716.563L432 716.537C409.219 716.553 386.312 716.635 363.533 716.457C361.341 716.439 360.023 716.5 358.348 715.089C356.619 709.86 357.376 657.401 357.382 648.017L357.167 545.662Z"/><path d="M424.513 581.096C431.373 584.036 439.304 588.607 445.94 592.267C460.263 600.329 474.53 608.492 488.738 616.754L488.921 631.146C476.373 639.228 453.615 650.847 440.106 657.75C434.795 660.634 429.429 663.415 424.011 666.092C424.02 660.991 424.26 651.047 423.602 646.385C436.136 640.126 453.234 630.95 465.321 623.951C452.195 616.155 438.017 608.915 424.359 600.773C424.594 594.07 424.576 587.807 424.513 581.096Z"/><path d="M532.56 667.696C555.493 667.096 581.039 667.738 604.127 667.855L604.311 686.185C580.898 685.37 556.24 686.502 532.545 685.8C532.508 679.765 532.513 673.73 532.56 667.696Z"/><path d="M503.172 647.996L523.385 648.059C518.714 657.842 515.157 668.376 511.497 678.602L511.362 679.124C509.448 680.522 496.537 679.841 493.318 679.801C496.556 670.199 500.054 657.976 503.172 647.996Z"/><path fill="white" d="M358.871 496.652C381.214 495.864 408.143 496.693 430.791 496.727L570.254 496.654L638.252 496.541C641.777 496.535 666.118 495.183 666.217 498.412C666.382 503.794 667.51 520.88 666.214 525.633L665.125 526.01L357.1 526.001C357.125 520.337 356.394 499.865 358.871 496.652Z"/><path d="M134.197 256.036C143.255 256.124 147.909 266.248 153.4 272.931C160.872 281.912 168.602 290.676 176.579 299.211C201.541 325.769 232.691 353.3 260.439 376.674L294.883 405.448C315.301 422.41 335.187 438.872 350.169 461.021C342.678 462.317 337.835 465.624 332.272 470.48C317.746 448.506 286.315 424.27 265.539 407.082C249.466 393.813 233.599 380.296 217.945 366.535C200.811 351.408 184.231 335.667 168.236 319.341C158.117 308.863 148.557 297.954 138.702 287.241C138.033 294.029 137.281 301.271 137.397 308.055C137.865 335.454 150.709 358.552 169.918 377.317C173.455 380.805 177.248 384.023 181.265 386.944C206.125 405.184 233.432 422.022 258.679 439.887C261.588 440.332 264.584 438.306 267.224 440.473C275.346 447.136 283.803 453.777 291.799 460.59C301.603 468.945 313.019 477.018 322.079 486.11C320.001 493.461 320.079 502.719 319.998 510.368C306.701 497.939 281.495 477.145 266.833 466.685C264.636 475.647 263.455 481.485 263.593 490.639C264.482 499.712 265.605 507.523 274.668 512.296C284.173 517.302 294.817 520.507 304.847 524.373C309.201 526.051 315.482 528.498 319.892 529.401L319.959 551.04C307.157 547.345 285.046 538.306 271.832 533.429C271.425 567.516 294.696 563.862 320.003 565.213L319.935 583.941C311.216 584.064 302.495 584.036 293.777 583.857C297.885 598.79 305.198 602.394 319.959 602.575L319.894 631.086C304.504 640.294 281.502 653.591 267.462 663.57C273.107 666.074 279.346 666.78 285.485 666.706C300.124 666.531 310.125 655.692 319.579 645.667L319.563 674.226C310.226 681.035 301.504 685.66 289.232 686.288C274.351 687.049 253.186 682.105 241.312 672.606C238.591 670.43 238.613 667.866 238.546 664.707C220.467 662.489 205.641 653.931 192.448 641.58C186.965 636.448 186.094 631.57 189.951 625.297C172.435 618.44 150.727 597.039 144.8 579.257C146.025 574.536 146.783 573.036 150.558 569.988C133.408 557.184 121.471 538.854 116.151 518.18C113.764 508.905 116.006 503.553 125.476 501.872C112.445 485.242 106.67 472.352 103.105 451.413C102.263 445.755 101.432 439.75 101.938 434.043C102.535 427.294 107.415 423.567 114.017 425.436C114.789 425.655 114.508 425.606 115.362 425.299C111.342 413.443 104.577 406.455 103.249 391.818C101.685 378.408 98.772 356.509 105.579 344.297C110.951 334.661 123.274 347.522 127.482 350.882C113.941 324.239 114.858 291.796 125.683 264.354C127.498 259.753 129.73 257.725 134.197 256.036Z"/><path fill="white" d="M121.234 370.849C125.593 373.322 132.975 378.713 137.507 381.758C148.552 389.106 159.535 396.545 170.456 404.076L248.913 457.36C247.068 463.614 245.336 470.204 244.223 476.624C244.03 478.702 244.089 479.295 243.267 481.156C241.813 481.162 171.172 450.636 168.117 448.968C161.203 445.175 154.795 440.526 149.043 435.132C129.896 417.422 122.225 396.284 121.234 370.849Z"/><path fill="white" d="M123.884 451.769C129.805 453.746 143.413 460.593 150.007 463.413L209.217 488.523C219.818 493.063 234.389 499.902 244.907 503.575C246.452 511.84 249.783 514.779 252.316 522.391C252.48 522.883 251.764 525.961 251.57 526.78L250.989 527.019C230.972 523.346 210.691 518.15 190.607 514.786C156.149 509.016 129.456 487.298 123.884 451.769Z"/><path fill="white" d="M140.507 525.271C151.422 526.974 163.921 529.814 174.92 531.948L251.831 547.236C253.742 554.341 257.049 559.303 258.192 563.45L257.458 563.957C250.051 563.941 242.646 564.117 235.248 564.486C217.052 565.568 194.242 568.817 177.266 562.238C158.837 555.095 148.511 542.677 140.507 525.271Z"/><path fill="white" d="M257.81 582.79C263.028 582.427 268.233 582.432 273.462 582.378C274.029 587.072 274.644 590.253 275.673 594.882C267.329 597.198 258.479 600.461 250.171 603.066C230.356 609.278 214.957 615.783 194.974 605.964C186.267 601.613 178.783 595.159 173.2 587.186L257.81 582.79Z"/><path fill="white" d="M288.034 612.033C288.675 612.171 294.204 616.47 296.012 617.275C297.833 618.086 298.878 618.527 300.94 619.207C291.372 625.9 279.184 632.58 269.031 638.539C257.545 645.282 245.219 647.593 232.219 643.805C225.661 641.285 222.969 639.072 217.295 634.988C240.984 625.975 264.079 619.582 288.034 612.033Z"/><path d="M887.081 256.014C892.427 255.828 896.583 258.415 898.494 263.542C905.67 282.797 908.281 304.125 905.348 324.496C904.129 332.962 900.395 342.583 897.463 350.633C900.325 348.344 905.383 343.364 908.672 342.286C923.473 337.434 921.993 357.765 922.351 365.297C923.486 389.155 918.968 405.898 907.73 426.451C914.971 424.104 918.026 425.064 921.928 431.465C923.414 456.035 914.332 482.991 898.489 501.925C898.931 501.984 899.373 502.046 899.813 502.112C909.88 503.624 909.684 511.976 907.195 519.957C901.057 539.64 890.363 558.342 873.012 570.016C880.31 575.25 879.978 580.973 875.121 588.224C864.66 603.839 851.895 618.155 834.046 625.203C835.141 626.707 836.539 629.144 836.623 630.863C837.186 642.443 809.181 658.523 799.648 661.955C796.992 662.911 788.476 664.016 785.913 665.107C785.71 666.494 784.744 672.079 783.484 672.876C758.074 688.951 728.072 692.8 704.469 673.772L704.393 645.863C721.406 662.632 731.743 672.94 756.907 663.385C740.093 652.69 721.232 641.199 704.147 630.917C704.58 622.685 704.169 611.013 704.194 602.462C718.971 602.255 725.181 598.739 729.995 584.248L704.108 583.99C704.343 577.758 704.184 570.692 704.165 564.387C729.803 563.921 751.477 567.988 753.288 533.589C749.341 534.384 742.76 537.112 738.76 538.502C727.216 542.513 715.612 547.416 704.021 551.195C704.378 543.736 704.329 536.886 704.159 529.439C714.244 526.062 724.287 522.559 734.284 518.93C747.655 514.06 755.086 513.271 759.626 498.212C761.473 484.977 759.895 479.525 756.682 466.846C738.674 480.72 721.099 495.147 703.983 510.107C704.079 500.226 704.273 494.914 701.769 485.288C717.986 471.198 736.086 458.368 752.258 444.12C754.161 442.443 756.164 440.911 758.487 439.859C760.636 439.96 762.876 440.179 765.028 440.356C778.107 432.183 790.886 422.263 803.844 413.764C812.664 407.979 821.192 401.539 830.06 395.807C842.21 387.953 853.35 379.967 862.708 368.677C875.237 353.561 884.923 334.355 886.305 314.496C886.926 305.576 886.005 296.373 885.312 287.524C876.97 296.293 868.927 305.846 860.379 314.775C842.286 333.471 823.441 351.422 803.888 368.585C789.608 381.146 775.106 393.453 760.391 405.502C735.849 425.68 710.92 445.187 691.061 470.141C685.496 464.779 681.215 462.818 673.85 461.103C683.281 442.538 717.921 414.738 733.795 401.417C748.19 389.338 763.606 376.735 778.003 364.407C796.205 348.885 813.834 332.703 830.855 315.894C849.428 297.708 865.726 279.396 882.159 259.334C883.361 257.866 885.387 256.82 887.081 256.014Z"/><path fill="white" d="M902.353 371.389C904.628 392.726 891.116 418.981 876.228 433.504C857.173 452.092 833.444 458.583 809.676 469.146C805.792 470.872 783.1 480.901 781.019 480.863C779.825 479.52 780.139 478.875 779.837 476.685C778.551 468.855 777.439 464.453 775.052 457.05C788.573 448.317 800.746 439.569 813.965 430.69L902.353 371.389Z"/><path fill="white" d="M899.127 452.461L899.672 452.662C900.098 455.125 898.245 460.143 897.557 462.571C890.582 487.2 868.03 505.47 844.082 512.463C834.925 515.137 824.479 516.463 814.95 518.427C801.098 521.282 787.071 524.349 773.129 526.801C772.15 526.18 771.873 522.039 771.708 520.795C775.72 514.348 777.915 510.892 779.249 503.481C819.321 486.741 859.281 469.734 899.127 452.461Z"/><path fill="white" d="M879.569 526.168C881.798 525.862 880.911 525.613 882.623 526.316C882.992 530.376 871.457 544.623 868.091 548.072C841.847 574.963 805.979 564.391 772.394 564.015L765.753 563.979C769.203 557.206 770.35 554.313 772.24 546.884C783.256 545.453 794.265 542.539 805.273 540.508C829.868 535.972 854.982 530.304 879.569 526.168Z"/><path fill="white" d="M750.98 582.412C758.342 582.473 766.922 583.433 774.439 583.703C799.961 584.376 825.468 585.515 850.949 587.12C847.443 592.309 842.979 596.065 838.195 600.014C835.883 601.774 833.441 603.357 830.891 604.749C813.015 614.594 799.494 611.266 781.374 605.374C770.82 601.943 758.679 597.563 748.202 594.617C749.742 590.296 750.357 586.913 750.98 582.412Z"/><path fill="white" d="M736.209 611.853C759.095 619.332 784.804 626.38 807.106 634.878C801.781 639.121 799.505 640.611 793.275 643.13C773.172 649.524 759.702 641.929 742.851 631.525C736.297 627.478 730.053 623.997 723.763 619.398C729.478 616.948 731.418 615.804 736.209 611.853Z"/></svg>